<svg id="Livello_1" data-name="Livello 1" xmlns="http://www.w3.org/2000/svg" viewBox="0 0 1147.96 267.28"><g id="layer101"><path d="M22.7,300.31c-2.3-2.6-2.2-8.5.2-10.6a21.45,21.45,0,0,0,3.6-4.9c.8-1.8,2.1-4.1,2.7-5.2s1.5-2.7,2-3.5,1.1-2.2,1.4-3a21,21,0,0,1,1.5-3c.5-.8,1.5-2.6,2.2-4,1.2-2.6,1.5-3,4.7-6.9a9.77,9.77,0,0,0,2-3.2,22.86,22.86,0,0,1,3-5.2c1.6-2.5,3-4.9,3-5.5a3.51,3.51,0,0,1,1.4-2.1,8.37,8.37,0,0,0,1.9-3.9,26.4,26.4,0,0,1,3.2-6.7,46.77,46.77,0,0,0,4.8-9.5c1.1-3,2.6-6.2,3.4-7.1a5.65,5.65,0,0,0,1.3-3,6.83,6.83,0,0,1,1.5-3.3,9.3,9.3,0,0,0,1.5-4.6c0-1.4,1.4-4.7,3-7.3a31.41,31.41,0,0,0,3-5.3,18.81,18.81,0,0,1,1.4-3.7c2.1-5.1,4.6-16.2,4.6-20.9a18.62,18.62,0,0,1,1.5-7.1,29.16,29.16,0,0,0,2.1-6.5,34.43,34.43,0,0,1,2-6.4,13.07,13.07,0,0,0,1.4-5.1,5.46,5.46,0,0,1,1.5-3.7,4.29,4.29,0,0,0,1.5-2.2c0-.6,2-4,4.4-7.6s4.8-8.4,5.1-10.5,1.1-4,1.6-4.3a2.83,2.83,0,0,0,.9-2.2c0-2.8,4.5-11.6,7.9-15.5a59.18,59.18,0,0,1,8.9-7.5c5.3-3.6,6.5-4,14.9-4.6,8.1-.7,9.5-.5,12.9,1.3a17.69,17.69,0,0,0,7.2,2.1c2.2,0,4.8,1.2,8.3,3.7,4.1,3.1,5.7,5.4,9.4,13,2.5,5.1,4.5,10.2,4.5,11.3s1.3,3.5,3,5.3,3,4.3,3,5.4a7.73,7.73,0,0,0,1.4,3.8c.7,1.1,1.7,5.8,2.1,10.5s1.1,9.2,1.5,10,1.3,5.8,1.9,11c1,8.6.9,9.7-.8,12-1,1.5-2,5.1-2.3,8.8-.4,3.4-1.1,6.9-1.8,7.7-.8,1-.8,1.9-.1,3.4a12.8,12.8,0,0,1,1.1,5.1,20.86,20.86,0,0,0,1.5,6.6c1,2.5,1.2,4.1.5,5.4-2.5,4.6.1,18.8,4,22.5,2.3,2.2,3.1,2.4,5.3,1.6,1.5-.6,2.7-1.7,2.7-2.5s1.4-2.9,3.2-4.7a28.16,28.16,0,0,0,5.4-9.3,147.18,147.18,0,0,1,8.5-19.8,18.68,18.68,0,0,0,1.9-6.5c0-1.5,1.2-7.1,2.6-12.3s2.9-12.9,3.5-17a49.39,49.39,0,0,1,2.4-10.7,15.42,15.42,0,0,0,1.5-4.5,3.69,3.69,0,0,1,1-2.4c.5-.5,1.3-3.9,1.7-7.4a25.45,25.45,0,0,1,3.3-11,37.1,37.1,0,0,0,3.4-7.3,32.49,32.49,0,0,1,3.1-6.8,20.06,20.06,0,0,0,2.5-4.5,27.3,27.3,0,0,1,3-4.4c1.7-2.1,3-4.2,3-4.8,0-1.3,12.1-14.2,13.4-14.2a13.07,13.07,0,0,0,4.1-1.6c2.8-1.4,3.4-1.4,8.4.3,5.8,2,11.2,7.1,15.9,15.3a33.24,33.24,0,0,0,4.9,6.7c2,1.9,2.3,3.2,2.3,9.1,0,3.9.5,7.6,1.3,8.5,1.1,1.6,1.4,1.5,4-.8,1.5-1.4,2.7-3.3,2.7-4.2s1.1-3,2.4-4.8a56.74,56.74,0,0,0,5.1-9.5c3.6-8.5,11.3-15.9,16.5-15.9a10.48,10.48,0,0,1,5.4,1.4,7.84,7.84,0,0,0,3.5,1.5c.9,0,3.3,1.5,5.4,3.3,3.7,3.1,4.1,3.9,6.8,15.4.6,2.3,1.7,4.7,2.5,5.4s1.4,2.9,1.4,5.1a17.49,17.49,0,0,0,1,5.9c1.3,2.4,4.9,2.5,5.6.2,1.2-3.9,4-9.1,7.9-14.3,2.2-3,4.8-6.7,5.8-8.2,3.3-5.3,18-11.4,21.2-8.8a6.91,6.91,0,0,1,2,3c.3,1,1.9,2.2,3.5,2.5s3,1.1,3,1.7,1.3,2.7,2.9,4.7a28.49,28.49,0,0,1,3.5,5.8,33.85,33.85,0,0,0,3.1,5.7c1.8,2.7,2.3,4.5,2.1,8.3a121.09,121.09,0,0,1-4.1,21.6c-1.1,3.6-1.2,7.2-.5,15.6.6,8,.5,13.1-.5,19.2-1.1,7.4-1.1,9.1.4,14.9,1.1,4.6,1.4,7.7.8,10.5-.7,3.4-.5,4.7,1.3,7.8,1.2,2,3,3.7,4,3.7s3.2-1.9,5.1-4.1,5.1-6.1,7.1-8.4,3.8-5.1,3.8-6.1a7.72,7.72,0,0,1,1.4-3.9,20.15,20.15,0,0,0,2-4.7c.3-1.6,1.1-2.8,1.6-2.8s1-.8,1-1.8c0-2.9,4.2-14.6,5.6-15.7,1.8-1.4,7.4-15.4,7.4-18.6a5.84,5.84,0,0,1,1.2-3.7c1.5-1.5,6.5-15.8,7.9-22.6a38.59,38.59,0,0,1,7.3-15.5c1.4-1.9,2.6-4.4,2.6-5.5a7.58,7.58,0,0,1,1.5-4A8,8,0,0,0,475,99c0-1,2.5-3.7,5.5-6.1,12.3-9.6,26.2-7.2,32.1,5.6a26.52,26.52,0,0,1,2.4,9.8,53.14,53.14,0,0,0,1.6,10.9,35.42,35.42,0,0,1,1.1,11.3c-.8,8.2,2.1,12.7,3.8,5.9a18.73,18.73,0,0,1,3.4-6.3c1.5-1.9,5.3-7.4,8.4-12.2,10.2-15.6,16.3-20.8,24.4-20.8,6.6,0,12.4,5.1,17.7,15.8a53.44,53.44,0,0,1,4,10.9c.7,5.1,4.5,13.3,6.1,13.3s4.5-6.4,4.5-9.7c0-2.8,8-15.8,11.1-18a8.78,8.78,0,0,0,2.3-4.3c1-5.2,12.8-13.6,17.6-12.6,6.6,1.3,8.7,2.1,11.3,4,6.8,5,9.7,15,9.7,33.7,0,7.2-.5,13.9-1,14.9-1.5,2.8-1.5,36.7-.1,48.3,1.9,15.4,6.2,22.1,12.5,19.7,3.6-1.3,8.4-6.7,9.2-10.2a35.47,35.47,0,0,1,2-6.3c3.6-8.1,8.4-21.5,8.4-23.2,0-1.1,1.2-4.4,2.7-7.4,2.1-4.4,2.7-7.2,3.1-14.9.2-5.2.8-9.9,1.2-10.5a15.57,15.57,0,0,0,1.5-4.3c.8-3.7,6.3-7.2,11.4-7.2,3,0,3.9-.6,7.9-5.6,1.2-1.6,3.8-4.9,5.7-7.2s3.5-4.8,3.5-5.3c0-1.4,10.3-16.9,11.2-16.9a26.19,26.19,0,0,0,5-2.9,32.75,32.75,0,0,1,6.8-3.6,14.19,14.19,0,0,0,3.9-1.8c.8-.7,5.6-1.1,11.8-1,10.7.1,16.4,1.6,20.4,5.3.9.8,3.7,3.1,6.2,5,5.3,4.1,7.5,7.8,8.7,15.6,1.1,6.5,4.1,11.9,8.3,14.4,3.8,2.4,6.7,6.8,6.7,10.3a37.22,37.22,0,0,0,1.1,7.2c.8,3.2.8,6.5,0,12.2-3.1,21.9-3.3,25.7-2.1,38.8,1.9,20.4,2.2,21.6,4.9,22.6,2,.8,2.9.3,5.8-2.7,1.9-2,3.7-4.9,4-6.5a8.3,8.3,0,0,1,1.9-4,3.78,3.78,0,0,0,1.4-2.6,18.37,18.37,0,0,1,1.9-5.1c3.3-6.2,6.8-19.3,7.6-27.7a65.65,65.65,0,0,1,6.5-24c1.5-3.3,3.3-7.6,4-9.5,4.6-13.6,6.1-17.1,7.9-18.9a27.57,27.57,0,0,0,4-6.3c4.2-8.6,10.7-14.8,15.5-14.8.8,0,4-1.3,7.3-2.9s6.2-2.6,6.8-2.1a29.33,29.33,0,0,0,5.5,2c8.8,2.4,20.6,17.9,23.1,30.4a34.13,34.13,0,0,0,1.3,5.4c1.1,1,4.6-1.1,5.2-3.1.3-1.2,2.1-3.4,3.9-4.9s4.8-6,6.7-10c3.9-8.1,11.2-15.7,18.3-18.9,5.5-2.5,16.6-2.6,18.7-.1,8.3,9.3,11.1,44.2,4.9,61.6-1.9,5.5-2.1,7.5-1.7,24.5.5,19.2,1.1,23.5,4.5,31.5,1.8,4.2,2.3,4.6,5.4,4.6,3.7,0,7.9-3.7,9.2-8a21.38,21.38,0,0,1,3.2-5.8c3.7-4.9,5.2-9.4,5.9-17.2.4-3.9,1.1-7.3,1.5-7.6s.9-1.6.9-3a13.07,13.07,0,0,1,1.4-5.2,33.76,33.76,0,0,0,2-7.4c.4-2.5,1.3-5.1,2-5.7a20,20,0,0,0,3.1-5.1c1.8-4.1,1.8-4.1-1.2-7.3-5.2-5.5-6.8-9.4-6.7-17.4,0-7.2,0-7.2,4.9-12.6,2.8-3,5.9-5.8,6.9-6.2a72,72,0,0,0,6.7-3.6c2.5-1.6,5.3-2.9,6.1-2.9a4.35,4.35,0,0,0,2.8-1.5,5.72,5.72,0,0,1,3.8-1.5,13.15,13.15,0,0,0,6.1-2.5c2.8-1.9,5.4-2.6,12.1-3.1,4.7-.4,9.6-1.1,11-1.7,6.3-2.5,12.6-4.6,14.2-4.7a5.07,5.07,0,0,0,3-1.3,23.49,23.49,0,0,1,6.1-3.1,26.9,26.9,0,0,0,6.3-3.3c1.7-1.8,8.3-5.3,9.8-5.3,1.2,0,15.9-7.1,16.6-8s10-6.3,13.3-7.8a12.3,12.3,0,0,0,4.8-4.6c1.1-1.9,5.2-5.8,9.2-8.7,7.1-5.3,7.3-5.4,13.9-5.3,5.4.1,7.2.6,9.6,2.5,6,4.9,7.2,7.7,7.2,17.1,0,8.5,0,8.7-4,13.7-5.2,6.5-7.1,7.5-13.2,6.7-3.8-.5-6.6-.2-11.4,1.4-3.5,1.2-6.4,2.6-6.4,3.1s-1.4.9-3.1.9a10.44,10.44,0,0,0-6.2,2.6,47.63,47.63,0,0,1-8.7,5.1c-11.3,5.1-14,6.5-17.6,9.4-2,1.6-4.1,2.9-4.6,2.9s-2.3,1.1-4,2.5-3.6,2.5-4.4,2.5c-2.5,0-7.4,4.3-7.4,6.4,0,1.1,1.3,3.4,3,5.1,2.5,2.6,3.2,4.6,5.4,16.6,1.4,7.5,2.5,15,2.4,16.5s.2,6.2.5,10.2c.4,5.8,0,8.4-1.5,12.5a73,73,0,0,0-3.2,13.2c-1.6,10-6.3,27.3-8.2,30.3-1.5,2.4-5.4,13.5-5.4,15.6,0,3.6-14.4,17.6-18.1,17.6-.6,0-2.5,1.1-4.2,2.4-4.3,3.3-12.3,4.4-16.5,2.2a15,15,0,0,0-5.7-1.6,13.94,13.94,0,0,1-5.9-2.2c-2.9-1.9-5-4.4-12.8-15.5-3.2-4.6-6.2-4.3-11.4,1-12,11.9-14.8,13.7-21.2,13.7-6.9,0-16.3-1.9-19.2-3.8a98.16,98.16,0,0,0-8.5-5.2c-2.3-1.3-5.1-7-8.9-18.1-2.4-7-2.7-9.2-2.8-25-.2-9.6.1-21.2.6-25.9,1.4-13.8,1.3-25.5-.2-25.5-1.2,0-3,2.6-5.2,7.5a21.71,21.71,0,0,1-3.5,5c-3,3.2-5.2,9-5.9,16a47.74,47.74,0,0,1-2.1,9.5,39.92,39.92,0,0,0-1.5,10.1,110.63,110.63,0,0,1-1.6,15.3c-.9,5.1-1.3,10.2-1.1,11.3s-.3,4.7-1.4,8a47.69,47.69,0,0,0-1.9,7.8c0,1-1.6,3.6-3.6,5.9-3.6,4.1-3.6,4.1-11.4,4.1-9.8,0-12.9-1.6-15.9-8.2-3.2-7-3.4-10.1-1.5-20.8,1.5-8.5,3.6-29.3,3.4-34.5-1.2-37.6-1.4-39.8-4.2-45.6-1.6-3.1-2.8-6.3-2.8-7.1a6.56,6.56,0,0,0-1.4-3.3c-1.4-1.9-1.5-1.9-3.5-.1a9.89,9.89,0,0,0-2.6,4.7,10.68,10.68,0,0,1-3.6,5c-1.6,1.1-2.9,2.7-2.9,3.5s-1.6,4.6-3.5,8.5-3.5,8.1-3.5,9.2c0,1.9-1.6,7.1-4,13.2-1.1,2.7-3.8,18.2-3.8,22.2a27,27,0,0,1-2.2,8,61.13,61.13,0,0,0-3,9.8c-1.3,7.4-2.7,12.4-3.8,13.8a33.5,33.5,0,0,0-2.6,6.1c-1.5,4.7-5,9.6-6.8,9.6-1.1,0-4.8,3.3-4.8,4.3,0,3.1-10.8,8.6-18.3,9.4-5.4.5-5.4.5-12-5.1-3.7-3.1-6.9-5.6-7.3-5.6-1.1,0-3.2-3.1-5.9-8.7-1.4-2.9-3.5-5.7-4.6-6.4-3-1.6-6.6-.3-8.4,3.1a39.74,39.74,0,0,1-5,6.7,25.17,25.17,0,0,0-4,5.5c-.6,1.7-6.7,5.8-8.7,5.8-.6,0-3.3,1.3-5.9,3-4.7,2.9-5.4,3-17.8,3.2-13,.3-13,.3-16.3-2.9-1.9-1.8-3.7-3.3-4.2-3.3-1.3,0-10-7-12.2-9.8a17.46,17.46,0,0,1-2.7-5.9c-.8-3.9-3.5-8.3-5.1-8.3-.6,0-2.2,2-3.6,4.5s-2.8,4.5-3.3,4.5-4.2,3.4-8.4,7.6c-7.7,7.7-7.7,7.7-16.1,8.5-5.3.6-9,.5-10.2-.1a12,12,0,0,0-5-1c-3.5,0-4.4-.6-11.1-7.2-2.7-2.6-5.1-6-5.4-7.5a21.11,21.11,0,0,0-1.5-4.3,40.86,40.86,0,0,1-5-13c-.5-2.5-1.3-6.3-1.9-8.5-1-3.7-2.1-12.9-3.9-30.2-.8-8.3-2.3-10.8-4.7-7.7a20.61,20.61,0,0,0-2.6,5.9c-.6,2.2-2.5,7.6-4.2,12-3.1,8-3.1,8-2.9,30.4.1,17.2-.2,23.1-1.2,25.5a29.65,29.65,0,0,0-2,6.4c-.6,3.5-1.3,4.5-6.4,9.8-3.1,3.2-3.8,3.4-9.7,3.4-3.4,0-7.8-.6-9.6-1.4-6.1-2.5-12-15.2-12.1-25.6a89.31,89.31,0,0,1,1.7-12.5c2.3-12.2,3.5-29.2,2.2-33-.5-1.6-1.1-8.8-1.2-16-.3-10.2-.8-14.4-2.5-19.5-3.4-9.8-3.9-10-8.8-3.4-2.3,3.1-4.2,6.1-4.2,6.6s-1.7,3.9-3.7,7.5c-7.4,12.8-8.3,14.6-8.3,17.2a15.16,15.16,0,0,1-1.5,5.5,12.66,12.66,0,0,0-1.5,4,12.23,12.23,0,0,1-1.3,3.6,25.38,25.38,0,0,0-2,7.4c-.4,2.7-1.3,5.6-2,6.4-.8,1-1.3,6.6-1.5,17.6-.2,11.3-.8,17-1.8,19.3a15.15,15.15,0,0,0-1.4,5.1,4.82,4.82,0,0,1-1.5,3.2,4.82,4.82,0,0,0-1.5,3.2c0,2.2-6.1,5.2-9,4.3a2.33,2.33,0,0,0-2.5.5c-2.5,4-12.6-3-16.5-11.5-2-4.4-2.2-6-1.7-14.5.4-5.2,1.3-11.3,2.1-13.5,2.2-5.9,2.3-68.2.1-71.1-1.5-1.8-1.6-1.8-3.7,1-2.8,3.6-5.7,10.3-5.7,13.2a11.82,11.82,0,0,1-2.7,5,33.64,33.64,0,0,0-4.3,6.9c-4.3,9.7-8.4,20.3-9,23.5a25.31,25.31,0,0,1-1.8,5.5,66.52,66.52,0,0,0-4.8,11.5c-.7,2.5-4,7.4-7,10.4a30.15,30.15,0,0,0-4,6.3c-4.2,8-9.5,14.7-12.4,15.8a35.74,35.74,0,0,0-5.9,3.3c-3.8,2.8-14.3,4.2-16.5,2.3a61.42,61.42,0,0,0-6-3.5,38.21,38.21,0,0,1-6.7-4.6c-2.7-2.7-5.9-9.7-6-12.8,0-1.2-1.2-6-2.6-10.5-5.7-18.3-5.7-18.3-4.9-24.4.7-4.7.9-24.7.6-47.5-.1-4.7-1.7-4.9-2.5-.4a9.87,9.87,0,0,1-2.1,4.6A4.57,4.57,0,0,0,377,162c0,1-1.3,5.5-2.9,10.2a83.28,83.28,0,0,0-3.5,16.9,147.76,147.76,0,0,1-2.2,15.3c-.9,4.3-1.4,12.9-1.4,23.1,0,14.6-.2,16.6-1.9,18.8-4.2,5.3-21.5,6.3-25.8,1.5-4.9-5.4-5.5-7.2-5.7-18.9-.2-6.2-.8-13.2-1.5-15.6s-1.4-11.6-1.6-20.5c-.9-33.7-1.5-46.9-2-47.8-1-1.5-3.5-1-4.2.9a25.08,25.08,0,0,1-2.5,4.1,11.38,11.38,0,0,0-1.8,6.5,13.84,13.84,0,0,1-1.3,6.1,53.65,53.65,0,0,0-3.2,7.8c-1,3.1-2.4,6.2-3.2,6.8a4.6,4.6,0,0,0-1.3,3,15.84,15.84,0,0,1-2,5.6,17.41,17.41,0,0,0-2,5.4,3.93,3.93,0,0,1-.7,2.3c-.4.4-.9,4.4-1,8.9s-.8,11.6-1.4,15.7-1.4,10.8-1.8,14.9c-.5,5.8-1,7.6-2.5,8.5a20.17,20.17,0,0,0-3.8,2.9,6.65,6.65,0,0,1-2.7,1.7,4.12,4.12,0,0,0-2.1,1.5c-.9,1.1-3.3,1.5-8.5,1.5-6.9,0-7.3-.1-10.2-3.3-4.3-4.8-5.1-6.5-5.8-13.4-.5-4-.4-6.3.4-6.7.6-.4,1.1-2.6,1.1-4.9a46.37,46.37,0,0,1,1.6-10.2c1-4.1,1.4-9.6,1.3-17.5-.2-6.3-.1-20.6,0-31.8.2-14.5-.1-20.7-.9-21.7s-.9-2.2,0-5c1.6-4.8.7-6.7-2.7-6.3-2.3.3-3.3,1.5-6.7,8.3-4.5,9.2-5.2,10.9-6.1,15a32.51,32.51,0,0,1-2,6,86.35,86.35,0,0,0-3,10c-1,3.9-2.1,7.5-2.6,8a36.66,36.66,0,0,0-1.8,7.3,89.9,89.9,0,0,1-2.9,11.9c-1.1,3.2-3.2,11-4.7,17.3-1.9,8.2-3.5,12.6-5.6,15.4-1.6,2.2-2.9,5-2.9,6.2,0,4.2-8.2,18.2-14.1,24.2-6.2,6.2-11.2,10.2-12.9,10.2a9.1,9.1,0,0,0-3.5,1.6c-1.9,1.2-3.7,1.4-7.7.9-6.1-.7-9.3-2-12.8-5.3a37.52,37.52,0,0,0-6.2-4.3c-2-1-4-2.8-4.3-4-1.3-4-7.4-13.4-9.2-14-1.3-.4-3.8,1.6-9.4,7.6-8.3,8.6-10.8,10.2-24.9,15.6-2,.7-8.9,1.5-15.8,1.7-15,.4-19.4-.8-26.3-7.4-.5-.5-2.1-2.4-3.5-4.1s-3-3.3-3.5-3.3c-1.7,0-4.4,3.3-6.8,8a38.57,38.57,0,0,1-4.6,7,18.49,18.49,0,0,0-3.4,5,37,37,0,0,1-2,4c-.5.8-1.2,2.2-1.6,3-1.6,3.9-5.4,8.8-11.6,15-2.8,2.8-5.1,3.9-11.1,5.3C24.6,302.51,24.7,302.51,22.7,300.31Zm97.4-64.8a29.24,29.24,0,0,1,6.1-4.5,17.77,17.77,0,0,0,5.5-4.4c1-1.4,2.6-3.5,3.7-4.8,2.9-3.5,10.6-15.5,10.6-16.6a29,29,0,0,1,2.5-5.9c4-8.1,6.3-21.7,6.6-39.2.2-14.8.1-15.8-2.4-21.1a48.09,48.09,0,0,1-3.2-10.3c-.6-4-1.3-5.1-4.4-7a27.2,27.2,0,0,1-5.1-4.1,13.43,13.43,0,0,0-4.9-3.2c-3.1-1.3-3.8-1.3-7.6.7-4.3,2.2-5.5,3.9-8.2,12-1.3,3.9-1.4,5.8-.3,14.2,1.4,10.4,1,16.7-1.4,21.3a13.69,13.69,0,0,0-1.6,4.3,1.12,1.12,0,0,1-1,1.2,1.23,1.23,0,0,0-1,1.3,18.29,18.29,0,0,1-2,5,17.8,17.8,0,0,0-2,6.9,26.38,26.38,0,0,1-1.5,7.3,33.62,33.62,0,0,0-1.5,8.6,25.11,25.11,0,0,1-2.4,9.5c-3.6,7.4-3.7,8.1-3,16.1.7,7.3.7,7.3,6.3,11.3C114.5,238.81,116.8,239,120.1,235.51ZM742.5,213c6.7-9.3,10-14.7,11.1-18.1a31.09,31.09,0,0,1,2.9-5.8,26,26,0,0,0,2.9-8.4,41.74,41.74,0,0,1,2.1-8c1.9-4.3,4.5-16.4,4.5-20.7a85.68,85.68,0,0,0-1-9.5c-.6-3.2-1.3-7.3-1.5-9s-2.2-4.9-4.3-7.2-5.6-6.3-8-9.1c-4.1-4.8-4.6-5.1-9.2-5.1s-5.1.3-11.3,6.3a108.43,108.43,0,0,0-9.4,10.2c-3.1,4-3.1,4-3.1,19.5s0,15.5-3.1,21.5c-2.8,5.3-3.2,7.1-3.6,16.9-.3,8-.1,11.7.9,14a35,35,0,0,1,2.1,7.8c.4,3.5,1.6,5.8,4.8,9.3C727.9,227.41,732.8,226.41,742.5,213Zm302.5-.9c2.9-3.3,5.6-7.5,6-9.3a133.41,133.41,0,0,1,4.7-13.7,46.78,46.78,0,0,0,1.8-9.2c.3-3.1,1.2-9.6,2-14.5,3-16.7-.4-31.6-8.3-36-3.2-1.9-5-1.6-9.1,1.6a36.65,36.65,0,0,1-4.6,3.2c-.5.2-3.4,2-6.2,3.8-5.9,3.8-7,7.1-3,9.2,3.5,1.9,4.5,4,5.3,10.6.5,4.8.3,6.9-.8,8.5-1.9,2.9-3.1,9.8-2.9,16.5a24.83,24.83,0,0,1-1.4,8.9c-2.1,5.1-1.9,9.9.8,16.5C1034.2,219.91,1037.5,220.71,1045,212.11Z" transform="translate(-21.04 -34.69)"/></g></svg>